<svg width="30" height="22" viewBox="0 0 30 22" fill="none" xmlns="http://www.w3.org/2000/svg">
<path id="Vector" fill-rule="evenodd" clip-rule="evenodd" d="M0.274881 11.0299C0.274881 11.4651 0.447733 11.8824 0.755409 12.19C1.06309 12.4977 1.48038 12.6706 1.91551 12.6706L24.2061 12.6706L18.2561 18.6206C17.9663 18.9316 17.8086 19.3429 17.8161 19.768C17.8236 20.193 17.9957 20.5985 18.2963 20.8991C18.5969 21.1997 19.0025 21.3719 19.4275 21.3794C19.8525 21.3869 20.2639 21.2291 20.5749 20.9393L29.3249 12.1893C29.6321 11.8817 29.8047 11.4647 29.8047 11.0299C29.8047 10.5952 29.6321 10.1782 29.3249 9.87056L20.5749 1.12056C20.2639 0.830763 19.8525 0.672993 19.4275 0.680492C19.0025 0.68799 18.5969 0.860174 18.2963 1.16077C17.9957 1.46136 17.8236 1.86689 17.8161 2.29192C17.8086 2.71696 17.9663 3.12831 18.2561 3.43931L24.2061 9.38931L1.91551 9.38931C1.48038 9.38931 1.06309 9.56217 0.755409 9.86984C0.447733 10.1775 0.274881 10.5948 0.274881 11.0299Z" fill="black"/>
</svg>
