<svg width="50" height="51" viewBox="0 0 50 51" fill="none" xmlns="http://www.w3.org/2000/svg">
<g id="Layer_1" clip-path="url(#clip0_2692_53)">
<path id="Vector" d="M3.87862 21.4286C4.7933 21.5843 5.62861 21.7299 6.46512 21.8681C8.57171 22.2163 10.6798 22.5578 12.7852 22.9131C13.0154 22.952 13.3005 22.9367 13.2575 23.3631C13.2172 23.7622 13.1 23.8977 12.694 23.8492C10.3771 23.5724 8.05847 23.3128 5.73949 23.0541C4.79997 22.9492 3.85741 22.8692 2.91819 22.7613C2.7258 22.7393 2.59249 22.8018 2.46464 22.9183C1.69296 23.6199 0.924613 24.325 0.149906 25.0232C-0.0394539 25.194 -0.0591473 25.3267 0.146876 25.5072C0.907647 26.1746 1.65933 26.852 2.41071 27.5303C2.61764 27.717 2.82881 27.7688 3.11694 27.7345C5.64618 27.4338 8.17814 27.1551 10.7095 26.8719C11.3918 26.7956 12.078 26.7478 12.7564 26.6457C13.0609 26.5997 13.1803 26.6877 13.2187 26.9771C13.2557 27.2532 13.2945 27.5049 12.9158 27.568C12.1341 27.6986 11.3548 27.8424 10.5744 27.9812C8.95285 28.27 7.33163 28.5584 5.71041 28.8481C5.1287 28.952 4.53911 29.0204 3.8971 29.2141C4.4361 29.7392 4.97176 30.1601 5.52105 30.5628C5.65103 30.6582 5.82039 30.603 5.96703 30.5641C8.13482 29.9896 10.3035 29.4192 12.468 28.8322C13.5181 28.5474 13.5214 28.5299 13.871 29.5632C14.0053 29.9602 14.1525 30.3553 14.3737 30.7026C14.5739 31.0168 14.4764 31.1581 14.2086 31.3197C12.7688 32.189 11.3345 33.0681 9.89722 33.9417C9.1919 34.3706 8.48475 34.796 7.77609 35.2193C7.65127 35.2938 7.5528 35.3769 7.53765 35.5338C7.47342 36.2064 7.33163 36.8731 7.37162 37.6161C7.80972 37.431 8.13482 37.1333 8.48172 36.8823C10.6032 35.3475 12.7203 33.8072 14.8266 32.2515C15.1702 31.9977 15.2575 32.2524 15.432 32.4419C15.6404 32.6678 15.6122 32.8146 15.3771 33.0031C13.2142 34.7384 11.0579 36.4816 8.90104 38.2246C8.47203 38.5712 8.0515 38.9284 7.624 39.2769C7.45646 39.4136 7.38768 39.5825 7.38647 39.8007C7.38071 40.7896 7.33829 41.7769 7.23013 42.76C7.19196 43.1067 7.30557 43.2311 7.65702 43.2048C8.69168 43.1266 9.72786 43.0699 10.7637 43.0101C10.9316 43.0003 11.0382 42.9243 11.1418 42.7928C12.8121 40.6685 14.4882 38.5489 16.1615 36.4271C16.5418 35.9449 16.9284 35.4673 17.2898 34.9711C17.5561 34.6051 17.7382 34.8693 17.9664 35.0091C18.2418 35.1777 18.1981 35.3153 18.03 35.5568C16.4409 37.8399 14.8642 40.1318 13.2942 42.4283C13.1451 42.6463 12.7815 42.8688 12.9294 43.1082C13.0633 43.3252 13.4378 43.0855 13.6993 43.1094C14.7409 43.2054 15.2735 42.6634 15.7446 41.7677C16.7326 39.8902 17.857 38.0866 18.9098 36.2435C19.0968 35.9164 19.2461 35.8082 19.6118 36.0277C20.1354 36.3419 20.7101 36.5693 21.2979 36.7373C21.6269 36.8314 21.6748 36.9715 21.5912 37.3019C20.9834 39.7076 20.4068 42.1215 19.7997 44.5274C19.7251 44.8232 19.7812 45.0347 19.9542 45.249C20.2629 45.6312 20.5689 46.0153 20.8804 46.3954C20.9452 46.4745 21.0013 46.6005 21.1279 46.5652C21.25 46.5312 21.2485 46.3948 21.2645 46.2949C21.4639 45.062 21.6551 43.8276 21.8535 42.5945C22.1232 40.9199 22.398 39.2459 22.6688 37.5713C22.7128 37.3004 22.7767 37.114 23.1363 37.1873C23.4714 37.2553 23.6368 37.3411 23.5908 37.7415C23.2187 40.9751 22.8685 44.2111 22.5037 47.4456C22.4719 47.7279 22.5231 47.9547 22.7149 48.1666C23.3845 48.9062 24.0507 49.6489 24.7057 50.4018C24.9096 50.636 25.0363 50.6314 25.2411 50.3895C25.8758 49.6401 26.533 48.9096 27.1892 48.1785C27.3777 47.9685 27.4455 47.7457 27.4125 47.4618C27.1501 45.1944 26.8956 42.9258 26.6424 40.6575C26.5312 39.6613 26.4536 38.6601 26.3112 37.6685C26.2382 37.1588 26.6148 37.2731 26.8457 37.1909C27.152 37.0818 27.2065 37.3178 27.2453 37.541C27.5234 39.1353 27.7994 40.7298 28.0763 42.3244C28.3057 43.6462 28.5338 44.9682 28.7686 46.2891C28.7859 46.3865 28.7714 46.53 28.8968 46.5634C29.018 46.5956 29.0837 46.4751 29.1468 46.3957C29.4806 45.9746 29.8024 45.5433 30.1399 45.1252C30.2729 44.9603 30.2738 44.799 30.2241 44.6071C29.6018 42.2049 28.9992 39.7971 28.3514 37.4018C28.2333 36.9644 28.3551 36.8234 28.7296 36.7259C29.2788 36.5831 29.7966 36.3471 30.2929 36.0767C30.6138 35.902 30.7931 35.9283 30.987 36.2597C31.9647 37.9318 32.9624 39.5923 33.9535 41.2565C34.2443 41.7451 34.5427 42.2294 34.8257 42.7223C34.9175 42.8823 35.0211 42.981 35.212 42.9985C35.698 43.0432 36.1821 43.1076 36.6678 43.1539C36.8129 43.1677 37.0129 43.2437 37.092 43.0981C37.1817 42.9332 37.0138 42.7928 36.9172 42.6576C36.0331 41.4201 35.149 40.1827 34.2673 38.9437C33.492 37.8543 32.7206 36.7621 31.945 35.673C31.7978 35.4664 31.6333 35.2929 31.9499 35.0652C32.2319 34.8622 32.4222 34.7488 32.6961 35.1026C34.0692 36.8755 35.4647 38.6307 36.8529 40.3917C37.471 41.1755 38.0918 41.9572 38.708 42.7425C38.9004 42.9877 39.1255 43.0944 39.4512 43.1024C40.3962 43.1254 41.3406 43.1879 42.2838 43.2526C42.6134 43.2753 42.7588 43.1907 42.7303 42.8225C42.6519 41.8073 42.5955 40.7902 42.5428 39.7732C42.531 39.5451 42.4165 39.4056 42.2559 39.2763C39.7751 37.278 37.2925 35.2819 34.8197 33.2738C34.5964 33.0923 34.1528 32.9584 34.5315 32.4955C34.75 32.2285 34.8972 32.1718 35.2005 32.3891C37.5395 34.0653 39.8918 35.7227 42.2398 37.3859C42.351 37.4647 42.4701 37.5851 42.6073 37.5171C42.7755 37.4337 42.6643 37.2709 42.6513 37.1431C42.6013 36.6524 42.5407 36.1625 42.4943 35.6715C42.4716 35.433 42.3559 35.2905 42.1504 35.17C40.0781 33.9555 38.0112 32.7315 35.9431 31.5094C35.3944 31.1851 35.3883 31.1799 35.6983 30.5883C35.9492 30.1095 36.1427 29.6049 36.2924 29.0906C36.3994 28.7224 36.5912 28.6743 36.8999 28.7525C38.1718 29.0746 39.4446 29.394 40.7168 29.7165C41.8257 29.9976 42.9342 30.2799 44.0425 30.5641C44.2788 30.6248 44.4749 30.6012 44.6739 30.4228C45.0496 30.0859 45.4532 29.7812 45.8446 29.4621C45.9261 29.3956 46.0446 29.3343 46.0149 29.2126C45.9837 29.0838 45.844 29.1047 45.7437 29.0872C44.7073 28.9064 43.6708 28.7243 42.6331 28.5514C41.2494 28.3209 39.8642 28.0996 38.4799 27.8721C38.0136 27.7955 37.5495 27.7029 37.0817 27.6373C36.849 27.6045 36.6436 27.5867 36.722 27.2621C36.7884 26.9878 36.7596 26.6432 37.2104 26.7036C37.8303 26.787 38.452 26.8581 39.0734 26.9286C41.6651 27.2217 44.2573 27.508 46.8481 27.8099C47.1817 27.8488 47.4371 27.7615 47.6779 27.5395C48.3881 26.8851 49.1031 26.2353 49.8224 25.5912C50.0339 25.4018 50.0802 25.2593 49.8327 25.0456C49.0671 24.385 48.3148 23.7085 47.5667 23.0274C47.3483 22.8285 47.1126 22.8159 46.8438 22.8469C44.2228 23.1476 41.6012 23.4425 38.9798 23.7401C38.419 23.8039 37.8564 23.8563 37.2992 23.9436C36.8832 24.0089 36.8193 23.749 36.7596 23.4415C36.6887 23.0758 36.9326 23.0381 37.1853 22.994C39.9787 22.5029 42.7725 22.0116 45.565 21.5153C45.7201 21.4877 45.9458 21.5303 45.9961 21.3338C46.0391 21.1646 45.8334 21.0944 45.7274 20.9927C45.6062 20.8765 45.4444 20.7986 45.3383 20.6714C44.7127 19.9201 43.9856 19.9808 43.1278 20.2349C41.1827 20.8118 39.2107 21.2952 37.2486 21.8136C37.0868 21.8562 36.9199 21.8801 36.7545 21.907C36.5166 21.946 36.3909 21.8378 36.3279 21.603C36.1673 21.0052 35.9389 20.4308 35.6392 19.8922C35.4632 19.5756 35.5274 19.4137 35.8301 19.2316C37.9127 17.9789 39.9818 16.7031 42.065 15.4512C42.3916 15.255 42.5428 15.0248 42.544 14.6383C42.5452 14.2076 42.6119 13.7769 42.6422 13.346C42.6494 13.2421 42.664 13.0873 42.6073 13.0413C42.4925 12.9478 42.3853 13.0778 42.2901 13.1464C41.2854 13.8723 40.2817 14.5991 39.2795 15.3286C37.943 16.3018 36.6096 17.2791 35.2717 18.2504C35.0802 18.3896 34.8948 18.5855 34.6594 18.2664C34.4409 17.97 34.3943 17.7554 34.7191 17.4958C36.4306 16.1283 38.13 14.745 39.8354 13.3696C40.6219 12.7354 41.4097 12.1027 42.2023 11.4761C42.4292 11.2968 42.5855 11.0997 42.5979 10.7886C42.6388 9.7706 42.6919 8.75292 42.7479 7.73524C42.7609 7.49921 42.7285 7.34472 42.4377 7.36587C41.403 7.44097 40.3677 7.51086 39.3322 7.56879C39.0919 7.58228 38.9486 7.69447 38.8062 7.87563C36.889 10.3132 34.9654 12.7455 33.043 15.179C32.9382 15.3117 32.8212 15.4356 32.7282 15.5763C32.4928 15.9319 32.2744 15.7329 32.0402 15.5751C31.779 15.3991 31.8296 15.2225 31.9856 14.9985C33.5938 12.6909 35.1972 10.38 36.7966 8.06629C36.9229 7.88329 37.1907 7.65738 37.0726 7.48082C36.9438 7.28862 36.6236 7.42135 36.3873 7.45139C36.1003 7.48787 35.8116 7.57615 35.528 7.56021C35.0463 7.53293 34.8387 7.81034 34.6267 8.18277C33.456 10.2399 32.2583 12.2814 31.0894 14.3394C30.8846 14.6999 30.6983 14.7146 30.3587 14.5344C29.9012 14.2916 29.4225 14.0685 28.928 13.925C28.479 13.795 28.333 13.5973 28.452 13.1354C28.8438 11.6125 29.2122 10.0833 29.5909 8.55674C29.8063 7.68864 30.0236 6.82117 30.2405 5.95338C30.2793 5.79797 30.2847 5.65298 30.1751 5.51596C29.8203 5.07241 29.4737 4.62243 29.1165 4.18102C29.0546 4.10469 28.9771 3.96553 28.8659 4.03328C28.7935 4.07742 28.7583 4.21474 28.7411 4.31651C28.5808 5.25848 28.4257 6.20167 28.2736 7.14516C27.9818 8.95615 27.6934 10.768 27.404 12.5793C27.3846 12.701 27.3665 12.823 27.3525 12.9453C27.3041 13.3686 26.8632 13.5685 26.5097 13.3211C26.3509 13.2102 26.4163 13.0348 26.4309 12.8929C26.5236 11.9871 26.6299 11.0825 26.7302 10.1777C26.9887 7.84681 27.2419 5.51566 27.5089 3.18572C27.5473 2.85068 27.4643 2.59749 27.2374 2.35012C26.5842 1.63866 25.9434 0.914944 25.3135 0.182339C25.1129 -0.0509338 24.9672 -0.0693283 24.7633 0.167927C24.0828 0.959389 23.3936 1.7435 22.7037 2.52699C22.5652 2.68423 22.5676 2.85896 22.5889 3.04778C22.7558 4.53476 22.9215 6.02174 23.0854 7.50871C23.2815 9.2872 23.4596 11.0678 23.6799 12.8433C23.7377 13.3089 23.4981 13.3217 23.1736 13.3916C22.7597 13.4805 22.797 13.1856 22.7579 12.9625C22.3192 10.4566 21.8875 7.9495 21.4521 5.44301C21.3836 5.0485 21.3106 4.65492 21.2346 4.26194C21.1967 4.06546 21.1203 3.90024 20.9252 4.13872C20.5462 4.60189 20.1814 5.07732 19.8103 5.54723C19.696 5.69191 19.7609 5.8369 19.7991 5.98648C20.3205 8.01663 20.8404 10.0471 21.3597 12.0775C21.463 12.4809 21.5596 12.8862 21.6648 13.289C21.7351 13.5581 21.6657 13.7242 21.3824 13.8143C20.7707 14.009 20.1711 14.2416 19.6052 14.5485C19.3464 14.6889 19.2058 14.6432 19.0556 14.3863C18.1472 12.8334 17.2253 11.2885 16.3055 9.74271C15.9358 9.12167 15.5559 8.50677 15.1881 7.88452C15.0675 7.68068 14.9169 7.59209 14.6724 7.57829C14.2164 7.55285 13.7641 7.4707 13.3087 7.42748C13.1684 7.4143 12.9794 7.32939 12.8939 7.49982C12.8228 7.64175 12.9788 7.75148 13.0542 7.85785C14.2428 9.53886 15.4362 11.2165 16.6296 12.8941C17.1102 13.5697 17.581 14.2527 18.0806 14.9136C18.3057 15.2115 18.2303 15.3654 17.9645 15.5815C17.6904 15.8046 17.5346 15.7676 17.3316 15.5079C15.5356 13.208 13.7326 10.9133 11.9302 8.61866C11.7023 8.32868 11.4566 8.0528 11.233 7.75976C11.1106 7.59975 10.964 7.51822 10.7686 7.50687C9.70271 7.44587 8.63685 7.38487 7.57128 7.31866C7.34678 7.30456 7.27558 7.40051 7.28952 7.61937C7.35829 8.69744 7.41677 9.77642 7.48463 10.8548C7.49705 11.051 7.61491 11.1822 7.76852 11.306C10.285 13.3322 12.7958 15.3651 15.3108 17.3934C15.5371 17.5758 15.7559 17.7149 15.4989 18.0598C15.2617 18.378 15.0657 18.4046 14.7448 18.1747C12.5174 16.5783 10.2811 14.9942 8.0418 13.4149C7.84093 13.2733 7.66399 12.9089 7.41616 13.0603C7.19771 13.1939 7.37859 13.5477 7.3898 13.7993C7.40798 14.1987 7.49069 14.5945 7.52947 14.9936C7.55341 15.2403 7.74064 15.3136 7.9091 15.4138C9.99902 16.6571 12.0853 17.9068 14.1837 19.1354C14.5061 19.3242 14.5958 19.495 14.3985 19.826C14.0816 20.3572 13.8801 20.9424 13.6953 21.53C13.6041 21.82 13.4638 21.9276 13.1627 21.8497C11.1691 21.3335 9.17342 20.8259 7.17863 20.3146C6.80991 20.2202 6.43694 20.1371 6.07459 20.0216C5.7298 19.9112 5.46167 19.9839 5.20596 20.2423C4.81148 20.6414 4.31036 20.9234 3.87892 21.427L3.87862 21.4286Z" fill="white"/>
</g>
<defs>
<clipPath id="clip0_2692_53">
<rect width="50" height="50.5747" fill="white" transform="matrix(1 0 0 -1 0 50.5747)"/>
</clipPath>
</defs>
</svg>
