<svg width="880" height="355" viewBox="0 0 880 355" fill="none" xmlns="http://www.w3.org/2000/svg">
<path d="M133.5 343.087H68.5V113.587H0.5V68.5869C57.5 68.5869 76.5 49.5869 80.5 11.0869H133.5V343.087ZM275.449 177.587C304.449 177.587 324.949 153.087 324.949 116.587C324.949 78.5869 306.449 52.5869 274.449 52.5869C244.449 52.5869 227.949 80.0869 227.949 115.587C227.949 153.587 246.949 177.587 275.449 177.587ZM169.949 271.587H234.449C235.949 292.087 247.949 302.587 269.449 302.587C304.949 302.587 321.949 268.587 325.949 197.587C310.449 215.587 290.949 228.587 257.949 228.587C205.449 228.587 163.949 187.587 163.949 118.587C163.949 50.5869 207.949 0.0868895 273.449 0.0868895C351.449 0.0868895 389.949 57.0869 389.949 166.587C389.949 299.587 348.949 354.587 266.449 354.587C212.949 354.587 176.949 325.087 169.949 271.587ZM532.602 301.087C566.102 301.087 580.602 280.587 580.602 246.087C580.602 215.587 565.602 194.087 532.602 194.087C499.602 194.087 485.602 214.587 485.602 246.087C485.602 280.587 499.102 301.087 532.602 301.087ZM532.602 142.587C559.602 142.587 573.102 124.087 573.102 98.0869C573.102 71.0869 559.602 53.0869 532.602 53.0869C505.602 53.0869 492.102 71.0869 492.102 98.0869C492.102 124.087 505.602 142.587 532.602 142.587ZM598.102 161.587C628.102 175.087 647.602 209.087 647.602 246.087C647.602 309.087 610.102 354.587 533.102 354.587C456.602 354.587 417.602 307.587 417.602 249.087C417.602 210.587 435.102 181.087 469.602 164.587C442.102 150.587 432.102 119.587 432.102 91.5869C432.102 39.0869 475.102 0.0868895 533.102 0.0868895C598.602 0.0868895 632.602 39.0869 632.602 89.5869C632.602 118.587 623.602 148.587 598.102 161.587ZM759.211 343.087H692.211C699.711 247.587 738.711 149.087 808.711 68.5869H646.711V11.0869H879.211V61.0869C804.711 143.587 764.211 243.587 759.211 343.087Z" fill="#FBC300" fill-opacity="0.2"/>
</svg>
