<svg width="892" height="356" viewBox="0 0 892 356" fill="none" xmlns="http://www.w3.org/2000/svg">
<path d="M133 343.586H68V114.086H9.49949e-08V69.0863C57 69.0863 76 50.0863 80 11.5863H133V343.586ZM274.949 178.086C303.949 178.086 324.449 153.586 324.449 117.086C324.449 79.0863 305.949 53.0863 273.949 53.0863C243.949 53.0863 227.449 80.5863 227.449 116.086C227.449 154.086 246.449 178.086 274.949 178.086ZM169.449 272.086H233.949C235.449 292.586 247.449 303.086 268.949 303.086C304.449 303.086 321.449 269.086 325.449 198.086C309.949 216.086 290.449 229.086 257.449 229.086C204.949 229.086 163.449 188.086 163.449 119.086C163.449 51.0863 207.449 0.586279 272.949 0.586279C350.949 0.586279 389.449 57.5863 389.449 167.086C389.449 300.086 348.449 355.086 265.949 355.086C212.449 355.086 176.449 325.586 169.449 272.086ZM528.602 178.086C557.602 178.086 578.102 153.586 578.102 117.086C578.102 79.0863 559.602 53.0863 527.602 53.0863C497.602 53.0863 481.102 80.5863 481.102 116.086C481.102 154.086 500.102 178.086 528.602 178.086ZM423.102 272.086H487.602C489.102 292.586 501.102 303.086 522.602 303.086C558.102 303.086 575.102 269.086 579.102 198.086C563.602 216.086 544.102 229.086 511.102 229.086C458.602 229.086 417.102 188.086 417.102 119.086C417.102 51.0863 461.102 0.586279 526.602 0.586279C604.602 0.586279 643.102 57.5863 643.102 167.086C643.102 300.086 602.102 355.086 519.602 355.086C466.102 355.086 430.102 325.586 423.102 272.086ZM891.254 343.586H665.254C665.754 282.086 680.254 239.586 765.254 178.586C812.754 144.586 826.754 127.586 826.754 99.5863C826.754 66.0863 806.254 56.0863 780.754 56.0863C751.254 56.0863 732.254 70.5863 732.254 115.086H669.754C669.754 43.5863 709.754 0.586279 777.754 0.586279C844.754 0.586279 890.254 32.0863 890.254 97.5863C890.254 148.086 865.254 177.086 794.254 227.586C768.754 246.086 749.754 270.086 748.254 287.086H891.254V343.586Z" fill="#FBC300" fill-opacity="0.2"/>
</svg>
