<svg width="902" height="355" viewBox="0 0 902 355" fill="none" xmlns="http://www.w3.org/2000/svg">
<path d="M133.5 343.086H68.5V113.586H0.5V68.5857C57.5 68.5857 76.5 49.5857 80.5 11.0857H133.5V343.086ZM275.449 177.586C304.449 177.586 324.949 153.086 324.949 116.586C324.949 78.5857 306.449 52.5857 274.449 52.5857C244.449 52.5857 227.949 80.0857 227.949 115.586C227.949 153.586 246.949 177.586 275.449 177.586ZM169.949 271.586H234.449C235.949 292.086 247.949 302.586 269.449 302.586C304.949 302.586 321.949 268.586 325.949 197.586C310.449 215.586 290.949 228.586 257.949 228.586C205.449 228.586 163.949 187.586 163.949 118.586C163.949 50.5857 207.949 0.0856688 273.449 0.0856688C351.449 0.0856688 389.949 57.0857 389.949 166.586C389.949 299.586 348.949 354.586 266.449 354.586C212.949 354.586 176.949 325.086 169.949 271.586ZM529.102 177.586C558.102 177.586 578.602 153.086 578.602 116.586C578.602 78.5857 560.102 52.5857 528.102 52.5857C498.102 52.5857 481.602 80.0857 481.602 115.586C481.602 153.586 500.602 177.586 529.102 177.586ZM423.602 271.586H488.102C489.602 292.086 501.602 302.586 523.102 302.586C558.602 302.586 575.602 268.586 579.602 197.586C564.102 215.586 544.602 228.586 511.602 228.586C459.102 228.586 417.602 187.586 417.602 118.586C417.602 50.5857 461.602 0.0856688 527.102 0.0856688C605.102 0.0856688 643.602 57.0857 643.602 166.586C643.602 299.586 602.602 354.586 520.102 354.586C466.602 354.586 430.602 325.086 423.602 271.586ZM744.754 212.586H677.754L684.754 11.0857H889.254V66.0857H742.754L739.754 155.086C757.254 136.586 781.254 131.586 805.754 131.586C859.754 131.586 901.754 169.586 901.754 236.086C901.754 307.586 854.754 354.586 787.254 354.586C726.754 354.586 679.254 314.586 676.754 257.586H741.754C744.254 285.086 761.254 301.586 787.254 301.586C823.254 301.586 836.754 276.586 836.754 239.086C836.754 204.586 821.754 184.086 791.254 184.086C767.754 184.086 753.754 194.086 744.754 212.586Z" fill="#FBC300" fill-opacity="0.2"/>
</svg>
