<svg width="891" height="356" viewBox="0 0 891 356" fill="none" xmlns="http://www.w3.org/2000/svg">
<path d="M226.5 343.585H0.5C1 282.085 15.5 239.585 100.5 178.585C148 144.585 162 127.585 162 99.5849C162 66.085 141.5 56.0849 116 56.0849C86.5 56.0849 67.5 70.585 67.5 115.085H5C5 43.5849 45 0.584936 113 0.584936C180 0.584936 225.5 32.0849 225.5 97.585C225.5 148.085 200.5 177.085 129.5 227.585C104 246.085 85 270.085 83.5 287.085H226.5V343.585ZM364.422 302.585C395.922 302.585 411.422 268.585 411.422 178.085C411.422 86.0849 395.922 52.585 364.422 52.585C332.922 52.585 316.922 85.5849 316.922 177.085C316.922 269.585 332.922 302.585 364.422 302.585ZM362.422 355.085C290.922 355.085 249.422 301.085 249.422 176.085C249.422 51.5849 290.922 0.584936 362.422 0.584936C433.922 0.584936 477.422 51.5849 477.422 175.085C477.422 298.585 433.922 355.085 362.422 355.085ZM631.039 343.585H566.039V114.085H498.039V69.0849C555.039 69.0849 574.039 50.085 578.039 11.5849H631.039V343.585ZM777.488 302.585C808.988 302.585 824.488 268.585 824.488 178.085C824.488 86.0849 808.988 52.585 777.488 52.585C745.988 52.585 729.988 85.5849 729.988 177.085C729.988 269.585 745.988 302.585 777.488 302.585ZM775.488 355.085C703.988 355.085 662.488 301.085 662.488 176.085C662.488 51.5849 703.988 0.584936 775.488 0.584936C846.988 0.584936 890.488 51.5849 890.488 175.085C890.488 298.585 846.988 355.085 775.488 355.085Z" fill="#FBC300" fill-opacity="0.2"/>
</svg>
