<svg width="889" height="355" viewBox="0 0 889 355" fill="none" xmlns="http://www.w3.org/2000/svg">
<path d="M226.5 343.084H0.5C1 281.584 15.5 239.084 100.5 178.084C148 144.084 162 127.084 162 99.0845C162 65.5845 141.5 55.5844 116 55.5844C86.5 55.5844 67.5 70.0845 67.5 114.584H5C5 43.0845 45 0.0844481 113 0.0844481C180 0.0844481 225.5 31.5845 225.5 97.0845C225.5 147.584 200.5 176.584 129.5 227.084C104 245.584 85 269.584 83.5 286.584H226.5V343.084ZM364.422 302.084C395.922 302.084 411.422 268.084 411.422 177.584C411.422 85.5845 395.922 52.0845 364.422 52.0845C332.922 52.0845 316.922 85.0845 316.922 176.584C316.922 269.084 332.922 302.084 364.422 302.084ZM362.422 354.584C290.922 354.584 249.422 300.584 249.422 175.584C249.422 51.0844 290.922 0.0844481 362.422 0.0844481C433.922 0.0844481 477.422 51.0844 477.422 174.584C477.422 298.084 433.922 354.584 362.422 354.584ZM631.039 343.084H566.039V113.584H498.039V68.5845C555.039 68.5845 574.039 49.5845 578.039 11.0845H631.039V343.084ZM768.488 343.084H701.488C708.988 247.584 747.988 149.084 817.988 68.5845H655.988V11.0845H888.488V61.0845C813.988 143.584 773.488 243.584 768.488 343.084Z" fill="#FBC300" fill-opacity="0.2"/>
</svg>
