<svg width="975" height="356" viewBox="0 0 975 356" fill="none" xmlns="http://www.w3.org/2000/svg">
<path d="M226 343.584H9.49949e-08C0.5 282.084 15 239.584 100 178.584C147.5 144.584 161.5 127.584 161.5 99.584C161.5 66.084 141 56.084 115.5 56.084C86 56.084 67 70.584 67 115.084H4.5C4.5 43.584 44.5 0.58396 112.5 0.58396C179.5 0.58396 225 32.084 225 97.584C225 148.084 200 177.084 129 227.584C103.5 246.084 84.5 270.084 83 287.084H226V343.584ZM363.922 302.584C395.422 302.584 410.922 268.584 410.922 178.084C410.922 86.084 395.422 52.584 363.922 52.584C332.422 52.584 316.422 85.584 316.422 177.084C316.422 269.584 332.422 302.584 363.922 302.584ZM361.922 355.084C290.422 355.084 248.922 301.084 248.922 176.084C248.922 51.584 290.422 0.58396 361.922 0.58396C433.422 0.58396 476.922 51.584 476.922 175.084C476.922 298.584 433.422 355.084 361.922 355.084ZM723.539 343.584H497.539C498.039 282.084 512.539 239.584 597.539 178.584C645.039 144.584 659.039 127.584 659.039 99.584C659.039 66.084 638.539 56.084 613.039 56.084C583.539 56.084 564.539 70.584 564.539 115.084H502.039C502.039 43.584 542.039 0.58396 610.039 0.58396C677.039 0.58396 722.539 32.084 722.539 97.584C722.539 148.084 697.539 177.084 626.539 227.584C601.039 246.084 582.039 270.084 580.539 287.084H723.539V343.584ZM861.461 302.584C892.961 302.584 908.461 268.584 908.461 178.084C908.461 86.084 892.961 52.584 861.461 52.584C829.961 52.584 813.961 85.584 813.961 177.084C813.961 269.584 829.961 302.584 861.461 302.584ZM859.461 355.084C787.961 355.084 746.461 301.084 746.461 176.084C746.461 51.584 787.961 0.58396 859.461 0.58396C930.961 0.58396 974.461 51.584 974.461 175.084C974.461 298.584 930.961 355.084 859.461 355.084Z" fill="#FBC300" fill-opacity="0.2"/>
</svg>
