<svg width="971" height="355" viewBox="0 0 971 355" fill="none" xmlns="http://www.w3.org/2000/svg">
<path d="M226 343.083H9.49949e-08C0.5 281.583 15 239.083 100 178.083C147.5 144.083 161.5 127.083 161.5 99.0835C161.5 65.5835 141 55.5835 115.5 55.5835C86 55.5835 67 70.0835 67 114.583H4.5C4.5 43.0835 44.5 0.0834715 112.5 0.0834715C179.5 0.0834715 225 31.5835 225 97.0835C225 147.583 200 176.583 129 227.083C103.5 245.583 84.5 269.583 83 286.583H226V343.083ZM363.922 302.083C395.422 302.083 410.922 268.083 410.922 177.583C410.922 85.5835 395.422 52.0835 363.922 52.0835C332.422 52.0835 316.422 85.0835 316.422 176.583C316.422 269.083 332.422 302.083 363.922 302.083ZM361.922 354.583C290.422 354.583 248.922 300.583 248.922 175.583C248.922 51.0835 290.422 0.0834715 361.922 0.0834715C433.422 0.0834715 476.922 51.0835 476.922 174.583C476.922 298.083 433.422 354.583 361.922 354.583ZM723.539 343.083H497.539C498.039 281.583 512.539 239.083 597.539 178.083C645.039 144.083 659.039 127.083 659.039 99.0835C659.039 65.5835 638.539 55.5835 613.039 55.5835C583.539 55.5835 564.539 70.0835 564.539 114.583H502.039C502.039 43.0835 542.039 0.0834715 610.039 0.0834715C677.039 0.0834715 722.539 31.5835 722.539 97.0835C722.539 147.583 697.539 176.583 626.539 227.083C601.039 245.583 582.039 269.583 580.539 286.583H723.539V343.083ZM829.961 194.083V148.583C885.961 148.583 897.461 127.583 897.461 103.083C897.461 70.0835 884.461 52.0835 854.461 52.0835C829.461 52.0835 810.461 72.0835 810.461 106.583H749.961C749.961 43.0835 793.961 0.0834715 856.961 0.0834715C914.461 0.0834715 959.961 37.0835 959.961 90.5835C959.961 120.583 946.961 150.083 920.961 165.083C952.461 178.083 970.461 205.083 970.461 247.083C970.461 313.583 922.961 354.583 853.461 354.583C784.461 354.583 744.461 313.083 744.461 245.583H806.961C806.961 284.083 823.961 301.083 856.461 301.083C883.461 301.083 903.961 281.083 903.961 246.083C903.961 207.083 883.961 194.083 829.961 194.083Z" fill="#FBC300" fill-opacity="0.2"/>
</svg>
