<svg width="299" height="96" viewBox="0 0 299 96" fill="none" xmlns="http://www.w3.org/2000/svg">
<path d="M1.50272 35.933C1.57449 37.8647 3.19859 39.3724 5.13026 39.3006L36.6085 38.1311C38.5402 38.0593 40.0479 36.4352 39.9762 34.5035C39.9044 32.5719 38.2803 31.0641 36.3486 31.1359L8.36794 32.1755L7.32834 4.19481C7.25657 2.26315 5.63246 0.755408 3.7008 0.827178C1.76914 0.898948 0.261394 2.52305 0.333164 4.45472L1.50272 35.933ZM296.952 82.7137C220.248 101.8 170.311 66.4289 127.685 37.0671C106.579 22.5284 86.7638 9.07637 66.5131 5.61117C45.6986 2.04948 25.0516 9.05997 2.43525 33.4218L7.56536 38.1843C29.0558 15.0353 47.4688 9.45413 65.3325 12.5109C83.7601 15.6641 102.241 28.0407 123.714 42.8318C166.247 72.1295 218.602 109.423 298.642 89.5065L296.952 82.7137Z" fill="#C14229" fill-opacity="0.84"/>
</svg>
