<svg width="1046" height="424" viewBox="0 0 1046 424" fill="none" xmlns="http://www.w3.org/2000/svg">
<path d="M217.5 377.087H152.5V147.587H84.5V102.587C141.5 102.587 160.5 83.5869 164.5 45.0869H217.5V377.087ZM359.449 211.587C388.449 211.587 408.949 187.087 408.949 150.587C408.949 112.587 390.449 86.5869 358.449 86.5869C328.449 86.5869 311.949 114.087 311.949 149.587C311.949 187.587 330.949 211.587 359.449 211.587ZM253.949 305.587H318.449C319.949 326.087 331.949 336.587 353.449 336.587C388.949 336.587 405.949 302.587 409.949 231.587C394.449 249.587 374.949 262.587 341.949 262.587C289.449 262.587 247.949 221.587 247.949 152.587C247.949 84.5869 291.949 34.0869 357.449 34.0869C435.449 34.0869 473.949 91.0869 473.949 200.587C473.949 333.587 432.949 388.587 350.449 388.587C296.949 388.587 260.949 359.087 253.949 305.587ZM616.602 335.087C650.102 335.087 664.602 314.587 664.602 280.087C664.602 249.587 649.602 228.087 616.602 228.087C583.602 228.087 569.602 248.587 569.602 280.087C569.602 314.587 583.102 335.087 616.602 335.087ZM616.602 176.587C643.602 176.587 657.102 158.087 657.102 132.087C657.102 105.087 643.602 87.0869 616.602 87.0869C589.602 87.0869 576.102 105.087 576.102 132.087C576.102 158.087 589.602 176.587 616.602 176.587ZM682.102 195.587C712.102 209.087 731.602 243.087 731.602 280.087C731.602 343.087 694.102 388.587 617.102 388.587C540.602 388.587 501.602 341.587 501.602 283.087C501.602 244.587 519.102 215.087 553.602 198.587C526.102 184.587 516.102 153.587 516.102 125.587C516.102 73.0869 559.102 34.0869 617.102 34.0869C682.602 34.0869 716.602 73.0869 716.602 123.587C716.602 152.587 707.602 182.587 682.102 195.587ZM843.211 377.087H776.211C783.711 281.587 822.711 183.087 892.711 102.587H730.711V45.0869H963.211V95.0869C888.711 177.587 848.211 277.587 843.211 377.087Z" fill="#FBC300" fill-opacity="0.2"/>
</svg>
